<svg version="1.2" xmlns="http://www.w3.org/2000/svg" viewBox="0 0 82 19" width="82" height="19">
	<title>noemi-logo</title>
	<style>
		.s0 { fill: #b59f5b } 
		.s1 { fill: #ffffff } 
	</style>
	<path class="s0" d="m12.9 3.6v14.9h-0.1l-10-9.1 0.1 8.5h-2.9v-14.9h0.1l10 9.2-0.1-8.6z"/>
	<path class="s1" d="m20.2 7.1c0.7-1.1 1.5-2 2.7-2.7 1.1-0.7 2.3-1 3.7-1 1.4 0 2.5 0.3 3.7 1q1.65 1.05 2.7 2.7c0.7 1.1 1 2.3 1 3.6 0 1.3-0.3 2.5-1 3.7-0.7 1.2-1.6 2-2.7 2.7-1.1 0.7-2.3 1-3.7 1-1.3 0-2.5-0.3-3.7-1-1.1-0.7-2-1.5-2.7-2.7-0.7-1.2-1-2.3-1-3.7 0.1-1.2 0.4-2.5 1-3.6zm2.6 6c0.4 0.7 0.9 1.3 1.6 1.7 0.7 0.4 1.4 0.6 2.3 0.6 0.8 0 1.5-0.2 2.2-0.6 0.7-0.4 1.2-1 1.6-1.7 0.4-0.7 0.6-1.5 0.6-2.3 0-0.9-0.2-1.6-0.6-2.3-0.4-0.7-0.9-1.3-1.6-1.7-0.7-0.4-1.4-0.6-2.2-0.6-0.8 0-1.7 0.1-2.3 0.6-0.6 0.5-1.2 1-1.6 1.7-0.4 0.7-0.6 1.5-0.6 2.3 0 0.8 0.2 1.6 0.6 2.3z"/>
	<path class="s1" d="m50 3.6v2.7h-7v3.1h6.2v2.7h-6.2v3.1h7.2v2.7h-9.9v-14.3zm-4.1-1h-1.7l1.6-2.6h3z"/>
	<path class="s1" d="m71.5 3v14.9h-2.8v-6.8l-4.7 6.6-4.5-6.2v6.4h-2.7v-14.9l7.2 10.3z"/>
	<path class="s1" d="m81.6 3.6v14.3h-2.8v-14.3z"/>
</svg>